<?xml version="1.0" standalone="no"?>
<!DOCTYPE svg PUBLIC "-//W3C//DTD SVG 20010904//EN"
 "http://www.w3.org/TR/2001/REC-SVG-20010904/DTD/svg10.dtd">
<svg version="1.0" xmlns="http://www.w3.org/2000/svg"
 width="420.000000pt" height="420.000000pt" viewBox="0 0 420.000000 420.000000"
 preserveAspectRatio="xMidYMid meet">

<g transform="translate(0.000000,420.000000) scale(0.100000,-0.100000)"
fill="#000000" stroke="none">
<path d="M1721 3646 c-24 -25 -19 -36 16 -36 18 0 23 6 23 24 0 35 -14 39 -39
12z"/>
<path d="M1870 3611 c19 -17 44 -30 56 -31 21 0 72 45 62 55 -3 3 -27 1 -52
-6 -37 -9 -53 -9 -74 0 -24 11 -23 9 8 -18z"/>
<path d="M2110 3596 c0 -3 59 -45 97 -69 8 -5 13 -3 13 3 0 6 -21 24 -47 40
-43 28 -63 36 -63 26z"/>
<path d="M1565 3575 c-19 -15 -19 -16 8 -43 l28 -27 -10 27 c-6 15 -8 35 -5
43 7 18 4 18 -21 0z"/>
<path d="M1436 3489 c-14 -17 -26 -41 -26 -53 0 -12 -12 -33 -26 -47 -34 -32
-54 -71 -54 -107 0 -20 -13 -46 -40 -78 -39 -48 -49 -84 -31 -112 5 -8 2 -44
-5 -85 -11 -57 -12 -82 -3 -118 10 -38 9 -61 -5 -130 -23 -111 -36 -292 -35
-464 1 -77 -2 -153 -6 -170 -16 -69 -16 -69 -40 -17 -35 76 -85 118 -85 72 0
-11 12 -27 26 -36 45 -30 63 -83 74 -211 5 -65 10 -142 10 -172 l0 -53 -32 6
c-24 4 -29 3 -18 -4 8 -5 25 -10 36 -10 19 0 23 -9 33 -65 40 -228 161 -447
354 -644 182 -185 350 -265 557 -265 189 0 361 82 569 270 129 116 268 331
321 497 19 59 25 68 42 64 13 -4 30 5 51 25 l32 30 -33 -25 c-37 -30 -66 -26
-58 7 2 11 10 50 17 86 18 95 56 230 74 256 8 12 33 33 55 45 37 21 52 50 32
63 -17 10 -71 -34 -99 -81 l-28 -48 -3 70 c-2 39 4 98 12 135 25 105 59 464
53 570 -5 104 -20 153 -67 212 -26 32 -30 45 -30 100 0 57 -28 148 -44 148 -3
0 2 -16 11 -35 13 -28 14 -39 5 -60 -20 -44 -36 -33 -79 58 -36 74 -64 93 -33
22 10 -24 22 -60 26 -79 6 -35 6 -35 -35 -42 -23 -4 -44 -11 -47 -15 -10 -17
-65 -9 -115 16 l-50 26 -150 -12 c-83 -6 -210 -9 -282 -7 -162 5 -175 11 -261
128 -75 103 -92 132 -141 241 -21 46 -41 88 -46 94 -22 23 25 -100 61 -161 22
-38 40 -74 40 -80 0 -7 18 -46 40 -87 21 -41 36 -77 33 -81 -17 -17 -60 0
-150 60 -54 36 -120 77 -148 91 -92 47 -162 102 -207 163 -31 43 -39 75 -28
106 12 32 7 30 -24 -7z m17 -230 c80 -79 166 -136 239 -157 32 -9 58 -21 58
-25 0 -5 -33 -5 -72 -2 -156 14 -267 67 -307 148 -22 44 -22 49 -7 72 9 14 19
25 22 25 3 0 33 -27 67 -61z m-75 -108 c49 -39 134 -81 178 -88 41 -7 27 -23
-19 -23 -48 0 -198 72 -182 88 3 3 -5 16 -17 29 -31 33 -4 29 40 -6z m82 -121
c12 -8 10 -10 -10 -9 -14 0 -34 4 -45 9 -17 7 -16 9 10 9 17 0 37 -4 45 -9z
m445 -5 c61 -8 151 -20 200 -27 50 -6 207 -12 350 -12 305 -2 324 -6 429 -92
52 -43 74 -70 96 -115 52 -110 68 -331 37 -509 -11 -64 -22 -196 -27 -340 -8
-224 -16 -287 -50 -374 -20 -53 -3 -37 22 21 32 73 40 107 78 326 19 108 24
69 5 -46 -34 -219 -83 -355 -151 -421 -40 -39 -82 -51 -150 -43 -36 4 -54 14
-98 55 -35 34 -65 52 -87 56 -19 3 -151 7 -294 10 -223 4 -281 8 -410 31 -82
14 -163 24 -180 22 -16 -3 -58 -23 -91 -46 -71 -47 -121 -53 -190 -22 -122 55
-179 264 -164 601 l2 55 9 -40 c4 -22 9 -92 9 -155 1 -63 5 -137 10 -165 5
-33 6 -12 3 65 -3 63 0 153 6 200 6 47 14 153 17 235 5 111 12 172 29 235 13
47 26 103 29 125 l6 40 -14 -35 -14 -35 -1 36 c-1 53 33 178 68 248 27 52 35
61 58 61 27 0 27 0 7 -14 -11 -8 -30 -34 -41 -58 -25 -51 -63 -165 -62 -187 0
-9 12 20 27 65 46 136 100 197 215 240 75 28 155 30 312 9z m1129 -340 c4 -28
3 -33 -2 -15 -16 46 -23 86 -13 70 5 -8 12 -33 15 -55z m-1059 -1185 c88 -11
223 -20 300 -21 77 0 158 -4 180 -8 27 -6 -19 -9 -146 -10 -176 -1 -433 22
-545 48 l-39 9 45 1 c25 1 117 -8 205 -19z m-159 -189 c63 -58 163 -116 214
-125 l35 -7 -25 16 -25 16 30 -8 c17 -4 52 -6 79 -5 60 3 55 -6 -11 -18 -42
-8 -37 -9 38 -6 78 2 93 6 172 45 60 30 98 57 129 91 67 75 88 102 88 112 0
20 19 5 29 -23 15 -44 14 -93 -4 -137 l-15 -37 20 25 c25 32 26 10 0 -40 -25
-50 -71 -95 -143 -143 -106 -71 -168 -83 -180 -36 -5 17 -10 20 -24 13 -29
-13 -175 -17 -216 -4 -31 9 -41 8 -59 -5 -52 -36 -80 -23 -244 120 -25 21 -90
152 -81 161 3 3 13 -7 22 -23 9 -15 13 -19 9 -8 -3 11 -8 49 -11 85 -3 54 -1
71 17 99 l22 35 39 -72 c24 -42 63 -91 95 -121z m189 123 c55 -7 138 -14 185
-15 86 -2 120 -10 120 -31 0 -29 -425 13 -455 44 -7 8 -6 9 3 4 6 -4 12 -3 12
2 0 12 20 12 135 -4z"/>
<path d="M1600 2281 c-71 -22 -150 -91 -150 -132 0 -16 5 -14 32 16 32 37 95
75 123 75 13 0 12 -6 -9 -31 -41 -49 -34 -159 10 -159 8 0 10 8 6 23 -5 21 -4
21 19 -5 16 -17 41 -30 73 -36 49 -10 50 -10 84 24 30 30 34 39 30 79 -2 25
-2 45 0 45 12 0 32 -77 27 -104 -5 -25 -4 -28 5 -13 6 9 12 40 12 69 l1 51 24
-29 c13 -16 33 -45 43 -64 26 -48 26 -11 0 40 -53 103 -141 160 -245 159 -33
0 -71 -4 -85 -8z m89 -75 c9 -11 10 -20 1 -36 -13 -24 -38 -23 -53 1 -23 37
25 68 52 35z"/>
<path d="M2519 2207 c-55 -21 -122 -81 -152 -136 -36 -65 -34 -87 2 -30 29 45
78 96 85 88 3 -2 -1 -23 -7 -46 -10 -38 -8 -48 11 -88 12 -25 26 -45 30 -45
15 0 22 13 13 24 -24 32 -18 45 9 16 28 -30 32 -32 82 -25 68 8 98 38 98 99 0
23 -5 47 -12 54 -7 7 -9 12 -5 12 15 0 47 -66 47 -98 0 -20 4 -31 10 -27 15 9
12 66 -5 115 l-15 42 43 -25 c23 -13 57 -46 76 -73 l34 -49 -6 37 c-13 87
-114 158 -235 165 -41 2 -81 -2 -103 -10z m41 -62 c20 -24 3 -57 -28 -53 -33
4 -42 36 -16 55 23 17 29 16 44 -2z"/>
<path d="M1970 1690 c0 -79 64 -128 178 -136 37 -2 59 -1 49 4 -15 6 -13 10
17 20 37 14 59 40 70 85 11 45 -5 52 -28 11 -50 -88 -224 -80 -262 12 -18 42
-24 43 -24 4z"/>
<path d="M1865 1185 c49 -45 110 -81 150 -90 19 -4 11 3 -25 20 -30 14 -80 44
-110 66 l-55 40 40 -36z"/>
<path d="M2370 1174 c-49 -34 -134 -74 -183 -84 -42 -9 -42 -9 10 -5 57 4 130
38 183 84 42 37 38 39 -10 5z"/>
<path d="M1620 3475 c13 -14 26 -25 28 -25 3 0 -5 11 -18 25 -13 14 -26 25
-28 25 -3 0 5 -11 18 -25z"/>
<path d="M2495 3429 c39 -42 95 -113 125 -157 50 -75 70 -95 70 -74 0 28 -73
137 -129 192 -103 102 -151 131 -66 39z"/>
<path d="M2665 3403 c6 -5 42 -33 80 -62 71 -54 139 -119 142 -136 1 -5 7 -11
14 -14 15 -5 6 11 -40 67 -19 24 -66 64 -105 90 -85 56 -105 68 -91 55z"/>
</g>
</svg>
